<svg xmlns="http://www.w3.org/2000/svg" width="26" height="20" preserveAspectRatio="xMidYMid"><defs><pattern id="a" width="100" height="100" patternUnits="userSpaceOnUse"><g transform="translate(7.8)"><path fill="#ddd" d="m-20.885-41.779 11.277 4.104L-58.86 97.641l-11.277-4.104z"/><path fill="#eee" d="M-9.608-37.675 1.668-33.57l-49.25 135.315-11.277-4.104z"/><path fill="#ddd" d="m1.668-33.57 11.276 4.104-49.25 135.316-11.277-4.105z"/><path fill="#eee" d="m12.944-29.466 11.277 4.104-49.251 135.316-11.277-4.104z"/><path fill="#ddd" d="m24.22-25.362 11.277 4.104-49.251 135.316-11.276-4.104z"/><path fill="#eee" d="m35.497-21.258 11.276 4.105-49.25 135.315-11.277-4.104z"/><path fill="#ddd" d="M46.773-17.153 58.05-13.05 8.799 122.267l-11.277-4.105z"/><animateTransform attributeName="transform" dur="2s" keyTimes="0;1" repeatCount="indefinite" type="translate" values="0 0;26 0"/></g></pattern></defs><path fill="url(#a)" d="M0 0h26v20H0z"/></svg>