<svg xmlns="http://www.w3.org/2000/svg" width="513" height="512" fill="none" viewBox="0 0 513 512"><defs><clipPath id="a"><path fill="#fff" fill-opacity="0" d="M0 0h513v512H0z"/></clipPath></defs><g clip-path="url(#a)"><path fill="#D2EEB0" d="m115.9 505.83-90.75-3.74-7.35-86.02C13.77 368.74 7.64 303.91 4.17 271.99c-8.01-74.05 9.88-127.96 61.4-185.03C167.46-25.88 339.66-28.86 443.5 80.44c154.28 162.37 35.92 440.72-183.41 431.39-29.38-1.23-94.27-3.95-144.19-6m51.66-46.14c0-5.38-8.33-16.68-18.52-25.1-10.2-8.42-27.69-35.39-38.87-59.94-46.78-102.68-10.92-209.1 91.13-270.54 33.14-19.94 73.98-36.26 90.79-36.26 48.03 0 47.8-19.54-.33-27.67C147.34 15.82 8.94 159.5 43.78 297.64c6.63 26.32 12.06 75.75 12.06 109.85v61.99h55.86c30.72 0 55.86-4.4 55.86-9.79"/><path fill="#C5ED96" d="m121.46 505.82-96.37-3.69-6.84-91.63c-3.77-50.39-10-110.72-13.85-134.04C-17.84 141.67 111.17.91 256.94.91c136.63 0 256.95 120.16 256.95 256.6 0 137.83-126.4 262.31-258.25 254.3-20.79-1.26-81.19-3.95-134.18-5.99m51.69-47.49c3.8-6.14 1.79-11.16-4.46-11.16-16.2 0-64.16-87.83-72.42-132.59-9.32-50.59 9.4-115.14 45.99-158.56 35.97-42.68 127.64-87.57 181.71-88.96l39.1-1.02-33.52-15.32C222.64 1.83 78.68 74.85 44.98 195.04c-11.74 41.87-12.17 64.94-2.01 108.85 7.06 30.66 12.87 80.45 12.87 110.66v54.93h55.2c30.37 0 58.32-5.02 62.11-11.15"/><path fill="#BBE689" d="m121.46 505.82-96.37-3.69-7.01-91.63C14.24 360.11 8.03 297.21 4.3 270.73c-8.01-56.72 16.33-130.1 60.55-182.6 38.9-46.16 129.1-86.99 192.09-86.99 57.53 0 149.54 39.07 186.43 79.19 38.1 41.41 70.02 122.02 70.16 177.18.16 57.46-38.85 149.21-79.16 186.18-41.67 38.22-122.49 70.14-171.85 67.88-24.58-1.12-88.05-3.71-141.06-5.75m196.79-41.31c72.68-21.85 125.3-75.06 146.61-148.27 15.42-52.98 15.38-64.64-.5-119.18-53.2-182.75-289.47-218.63-394.64-59.92-31.85 48.07-35.12 90.44-19.31 251.36l7.94 80.77 88.92-.95c48.91-.52 91.91 2.03 95.58 5.69 9.36 9.34 15.05 8.63 75.4-9.5M116.04 275.03c-11.12-28.95 4.47-52.87 31.93-48.98 18.45 2.62 25.18 11.01 25.18 31.46s-6.73 28.84-25.18 31.46c-15.12 2.15-27.9-3.43-31.93-13.94m122.89 0c-11.12-28.95 4.47-52.87 31.93-48.98 18.45 2.62 25.18 11.01 25.18 31.46s-6.73 28.84-25.18 31.46c-15.12 2.15-27.9-3.43-31.93-13.94m111.72 0c-11.12-28.95 4.46-52.87 31.93-48.98 18.45 2.62 25.18 11.01 25.18 31.46s-6.73 28.84-25.18 31.46c-15.12 2.15-27.9-3.43-31.93-13.94"/><path fill="#ADE26F" d="m127.01 506.41-101.99-4.26-8.08-102.8C2.02 209.58 4.06 185.68 40.26 127.2c20.11-32.46 54.25-66.34 87.62-86.95 46.53-28.73 65.78-33.76 129.06-33.76 63.27 0 82.52 5.03 129.05 33.76 33.9 20.93 67.55 54.53 88.51 88.38 28.76 46.47 33.8 65.69 33.8 128.88s-5.04 82.41-33.8 128.88c-65.36 105.55-133.13 128.97-347.49 120.02m188.88-37.6C427.73 437.8 499.37 313.55 469.4 202.5c-15.92-59.07-89.01-140.2-142.05-157.69C227.36 11.86 110.15 60.83 58.6 157.1c-22.63 42.29-25.78 59.89-20 111.57 3.78 33.75 9.78 92.54 13.33 130.65l6.46 69.31 90.89 3.73c50 2.06 98.44 4.73 107.66 5.95 9.21 1.21 35.75-3.06 58.95-9.5M116.06 275.03c-11.13-28.95 4.47-52.87 31.92-48.98 18.45 2.62 25.18 11.01 25.18 31.46s-6.73 28.84-25.18 31.46c-15.12 2.15-27.89-3.43-31.92-13.94m122.89 0c-11.13-28.95 4.47-52.87 31.92-48.98 18.45 2.62 25.18 11.01 25.18 31.46s-6.73 28.84-25.18 31.46c-15.12 2.15-27.89-3.43-31.92-13.94m111.72 0c-11.13-28.95 4.47-52.87 31.92-48.98 18.45 2.62 25.18 11.01 25.18 31.46s-6.73 28.84-25.18 31.46c-15.12 2.15-27.89-3.43-31.92-13.94"/><path fill="#A2DE5C" d="m127.01 506.36-101.99-4.21-8-102.8c-4.4-56.54-8.3-125.95-8.66-154.27-.89-69.22 38.77-148.47 94.48-188.76C248.33-48.96 448.72 17.03 498.03 186.46c45.39 155.92-58.49 307.58-219.31 320.19-27.35 2.15-95.63 2.02-151.71-.29M384.35 439C548.51 323.16 479.1 56.08 279.86 36.96c-145-13.91-259.68 100.22-241.87 240.71 3.65 28.79 9.73 83.53 13.52 121.64l6.88 69.28 85.31 4.37c142.38 7.3 192.15.27 240.65-33.96m-268.3-163.97c-11.13-28.95 4.47-52.87 31.92-48.98 18.45 2.62 25.18 11.01 25.18 31.46s-6.73 28.84-25.18 31.46c-15.12 2.15-27.89-3.43-31.92-13.94m122.89 0c-11.13-28.95 4.47-52.87 31.92-48.98 18.45 2.62 25.18 11.01 25.18 31.46s-6.73 28.84-25.18 31.46c-15.12 2.15-27.89-3.43-31.92-13.94m111.72 0c-11.13-28.95 4.47-52.87 31.92-48.98 18.45 2.62 25.18 11.01 25.18 31.46s-6.73 28.84-25.18 31.46c-15.12 2.15-27.89-3.43-31.92-13.94"/><path fill="#97D74C" d="m131.25 505.79-108.92-3.64v-71.57c0-39.36-5.42-96.79-12.05-127.63-36.73-171.07 125.4-330.2 297.29-291.77 198.57 44.37 269.52 280.99 126.97 423.36-44.31 44.24-133.17 83.05-176.84 77.24-9.63-1.28-66.54-3.98-126.45-5.99m250.9-65.16c132.9-93.47 129.4-277.87-7.02-369.99-44.25-29.89-64.37-36.26-114.43-36.26-134.43 0-236.06 103.56-223.13 227.34 3.28 31.44 9.3 90.83 13.39 131.99l7.43 74.85 79.72 4.38c152.61 8.41 193.95 2.93 244.04-32.31M122.4 273.69c-11.86-14.28-11.13-20.53 4.23-35.86 17.34-17.32 19.84-17.32 37.18 0 15.36 15.33 16.09 21.57 4.22 35.86-7.91 9.5-18.18 17.29-22.81 17.29-4.64 0-14.91-7.79-22.82-17.29m122.9 0c-11.87-14.28-11.14-20.53 4.22-35.86 17.34-17.32 19.84-17.32 37.18 0 15.36 15.33 16.09 21.57 4.22 35.86-7.91 9.5-18.18 17.29-22.81 17.29-4.64 0-14.9-7.79-22.81-17.29m111.71 0c-11.86-14.28-11.13-20.53 4.23-35.86 17.34-17.32 19.84-17.32 37.18 0 15.36 15.33 16.08 21.57 4.22 35.86-18.09 21.75-27.54 21.75-45.63 0"/><path fill="#86D12F" d="M242.86 507.51c-3.78-3.8-54.27-6.27-112.2-5.54l-105.33 1.35-7.99-114.53C6 226.24 7.88 196.04 32.21 148.8 111.32-4.8 302.36-39.18 428.34 77.49c125.68 116.43 94.84 324.5-59.68 402.66-44.01 22.27-115.35 37.78-125.8 27.36m112.28-48.09c153.22-78.47 169.95-274 32.9-384.23-33.45-26.9-55.53-34.8-107.74-38.58-87.48-6.31-135.34 11.35-189.36 69.85-49.49 53.63-63.76 101.07-52.95 175.91 3.8 26.22 9.94 78.82 13.65 116.91l6.75 69.24 74.14 3.88c169.72 8.87 181.25 8.21 222.61-12.98M122.4 273.69c-11.86-14.28-11.13-20.53 4.23-35.86 17.34-17.32 19.84-17.32 37.18 0 15.36 15.33 16.09 21.57 4.22 35.86-7.91 9.5-18.18 17.29-22.81 17.29-4.64 0-14.91-7.79-22.82-17.29m122.9 0c-11.87-14.28-11.14-20.53 4.22-35.86 17.34-17.32 19.84-17.32 37.18 0 15.36 15.33 16.09 21.57 4.22 35.86-7.91 9.5-18.18 17.29-22.81 17.29-4.64 0-14.9-7.79-22.81-17.29m111.71 0c-11.86-14.28-11.13-20.53 4.23-35.86 17.34-17.32 19.84-17.32 37.18 0 15.36 15.33 16.08 21.57 4.22 35.86-18.09 21.75-27.54 21.75-45.63 0"/></g></svg>