<svg xmlns="http://www.w3.org/2000/svg" width="512" height="512" viewBox="0 0 1024 1024"><path d="M993.69 963.106 724.992 694.41c64.444-72.09 103.765-166.025 103.765-269.79 0-222.823-181.316-404.139-404.138-404.139S20.48 201.796 20.48 424.619s181.316 404.138 404.139 404.138c103.765 0 197.7-39.321 269.79-103.765L963.106 993.69c4.37 4.369 9.83 6.553 15.292 6.553s10.923-2.184 15.292-6.553c8.738-8.739 8.738-21.846 0-30.584m-569.071-178.04c-198.793 0-360.448-161.655-360.448-360.447S225.826 64.17 424.619 64.17s360.448 161.655 360.448 360.448S623.41 785.067 424.619 785.067z"/></svg>