<svg xmlns="http://www.w3.org/2000/svg" width="512" height="512" viewBox="0 0 1024 1024"><path d="M410.055 461.028H262.286l.051-.46a252.6 252.6 0 0 1 38.331-91.087 257.6 257.6 0 0 1 112.14-92.311c15.393-6.525 31.45-11.52 47.812-14.833a258.8 258.8 0 0 1 102.862 0 253.74 253.74 0 0 1 128.706 69.373l72.177-71.973a358.6 358.6 0 0 0-113.363-76.51 353 353 0 0 0-67.029-20.796 360.8 360.8 0 0 0-143.691 0 354 354 0 0 0-67.08 20.848 358.85 358.85 0 0 0-156.995 129.164 355.7 355.7 0 0 0-53.725 127.686c-1.427 6.881-2.192 13.915-3.211 20.899H2.276l203.89 203.89zm203.89 101.944h147.769l-.051.408a253.64 253.64 0 0 1-107.195 159.952 252 252 0 0 1-91.088 38.331 258.6 258.6 0 0 1-102.811 0 252.6 252.6 0 0 1-91.088-38.331 258.5 258.5 0 0 1-37.72-31.093l-72.075 72.075A358.4 358.4 0 0 0 373.1 840.772a350.6 350.6 0 0 0 67.029 20.797 360.4 360.4 0 0 0 143.64 0 358.4 358.4 0 0 0 224.024-150.114 355.5 355.5 0 0 0 53.674-127.584c1.376-6.881 2.192-13.915 3.211-20.899h157.046l-203.89-203.89-203.89 203.89z"/></svg>