<svg xmlns="http://www.w3.org/2000/svg" width="512" height="512" fill="none" viewBox="0 0 512 512"><defs><clipPath id="b"><path fill="#fff" fill-opacity="0" d="M0 0h512v512H0z"/></clipPath><filter id="a" width="512" height="512" x="0" y="0" color-interpolation-filters="sRGB" filterUnits="userSpaceOnUse"><feFlood flood-opacity="0" result="BackgroundImageFix"/><feBlend in="SourceGraphic" in2="BackgroundImageFix" result="shape"/><feColorMatrix in="SourceAlpha" result="hardAlpha" values="0 0 0 0 0 0 0 0 0 0 0 0 0 0 0 0 0 0 127 0"/><feOffset/><feGaussianBlur stdDeviation="3.333"/><feComposite in2="hardAlpha" k2="-1" k3="1" operator="arithmetic"/><feColorMatrix values="0 0 0 0 0 0 0 0 0 0 0 0 0 0 0 0 0 0 0.25 0"/><feBlend in2="shape" result="effect_innerShadow_1"/></filter></defs><g filter="url(#a)"><g clip-path="url(#b)"><path fill="#FFDC00" d="M0 256c0 4.19.1 8.37.3 12.56.21 4.18.52 8.36.93 12.53s.92 8.32 1.54 12.47c.61 4.14 1.33 8.27 2.14 12.38.82 4.11 1.74 8.19 2.76 12.26 1.01 4.06 2.13 8.1 3.35 12.11 1.21 4.01 2.53 7.98 3.94 11.93 1.41 3.94 2.92 7.85 4.52 11.72 1.61 3.87 3.3 7.7 5.09 11.49 1.8 3.79 3.68 7.53 5.65 11.22 1.98 3.7 4.04 7.34 6.2 10.94 2.15 3.59 4.39 7.13 6.72 10.61A256 256 0 0 0 58.1 418.4a257 257 0 0 0 16.88 18.61c2.96 2.97 5.99 5.86 9.1 8.67 3.1 2.81 6.27 5.55 9.51 8.21 3.24 2.65 6.54 5.23 9.91 7.73 3.36 2.49 6.79 4.9 10.27 7.23q5.22 3.495 10.62 6.72c3.59 2.16 7.23 4.22 10.93 6.2 3.69 1.97 7.43 3.86 11.22 5.65s7.62 3.49 11.49 5.09 7.78 3.11 11.72 4.52c3.95 1.41 7.92 2.73 11.93 3.94 4.01 1.22 8.05 2.34 12.11 3.35 4.07 1.02 8.15 1.94 12.26 2.76 4.11.81 8.24 1.53 12.38 2.14 4.15.62 8.3 1.13 12.47 1.54s8.35.72 12.53.93c4.19.2 8.38.31 12.57.31s8.37-.11 12.56-.31c4.18-.21 8.36-.52 12.53-.93s8.32-.92 12.47-1.54c4.14-.61 8.27-1.33 12.38-2.14 4.11-.82 8.19-1.74 12.26-2.76 4.06-1.01 8.1-2.13 12.11-3.35 4.01-1.21 7.98-2.53 11.93-3.94 3.94-1.41 7.85-2.92 11.72-4.52s7.7-3.3 11.49-5.09a256 256 0 0 0 22.16-11.85c3.59-2.15 7.13-4.39 10.61-6.72a256 256 0 0 0 20.18-14.96c3.24-2.66 6.41-5.4 9.51-8.21 3.11-2.81 6.14-5.7 9.1-8.67 2.97-2.96 5.86-5.99 8.67-9.1 2.81-3.1 5.55-6.27 8.21-9.51 2.65-3.24 5.23-6.54 7.73-9.91 2.49-3.36 4.9-6.79 7.23-10.27s4.57-7.02 6.72-10.61a256 256 0 0 0 11.85-22.16c1.79-3.79 3.49-7.62 5.09-11.49s3.11-7.78 4.52-11.72c1.41-3.95 2.73-7.92 3.94-11.93 1.22-4.01 2.34-8.05 3.35-12.11 1.02-4.07 1.94-8.15 2.76-12.26.81-4.11 1.53-8.24 2.14-12.38.62-4.15 1.13-8.3 1.54-12.47s.72-8.35.93-12.53c.2-4.19.31-8.37.31-12.56s-.11-8.38-.31-12.57c-.21-4.18-.52-8.36-.93-12.53a250 250 0 0 0-1.54-12.47c-.61-4.14-1.33-8.27-2.14-12.38-.82-4.11-1.74-8.19-2.76-12.26-1.01-4.06-2.13-8.1-3.35-12.11a252 252 0 0 0-3.94-11.93c-1.41-3.94-2.92-7.85-4.52-11.72s-3.3-7.7-5.09-11.49-3.68-7.53-5.65-11.22c-1.98-3.7-4.04-7.34-6.2-10.93q-3.225-5.4-6.72-10.62c-2.33-3.48-4.74-6.91-7.23-10.27-2.5-3.37-5.08-6.67-7.73-9.91-2.66-3.24-5.4-6.41-8.21-9.51-2.81-3.11-5.7-6.14-8.67-9.1A257 257 0 0 0 418.4 58.1c-3.24-2.65-6.54-5.23-9.91-7.73-3.36-2.49-6.79-4.9-10.27-7.23a249 249 0 0 0-10.61-6.72c-3.6-2.16-7.24-4.22-10.94-6.2-3.69-1.97-7.43-3.85-11.22-5.65a267 267 0 0 0-11.49-5.09c-3.87-1.6-7.78-3.11-11.72-4.52a255 255 0 0 0-24.04-7.29 258 258 0 0 0-12.26-2.76c-4.11-.81-8.24-1.53-12.38-2.14a250 250 0 0 0-12.47-1.54c-4.17-.41-8.35-.72-12.53-.93a263 263 0 0 0-25.13 0c-4.18.21-8.36.52-12.53.93s-8.32.92-12.47 1.54c-4.14.61-8.27 1.33-12.38 2.14-4.11.82-8.19 1.74-12.26 2.76a255 255 0 0 0-24.04 7.29c-3.94 1.41-7.85 2.92-11.72 4.52-3.87 1.61-7.7 3.3-11.49 5.09-3.79 1.8-7.53 3.68-11.22 5.65-3.7 1.98-7.34 4.04-10.93 6.2q-5.4 3.225-10.62 6.72c-3.48 2.33-6.91 4.74-10.27 7.23-3.37 2.5-6.67 5.08-9.91 7.73a257 257 0 0 0-18.61 16.88A257 257 0 0 0 58.1 93.59c-2.65 3.24-5.23 6.54-7.73 9.91-2.49 3.36-4.9 6.79-7.23 10.27q-3.495 5.22-6.72 10.62c-2.16 3.59-4.22 7.23-6.2 10.93-1.97 3.69-3.85 7.43-5.65 11.22a267 267 0 0 0-5.09 11.49c-1.6 3.87-3.11 7.78-4.52 11.72a252 252 0 0 0-3.94 11.93 244 244 0 0 0-3.35 12.11 258 258 0 0 0-2.76 12.26c-.81 4.11-1.53 8.24-2.14 12.38a250 250 0 0 0-1.54 12.47c-.41 4.17-.72 8.35-.93 12.53Q0 249.715 0 256"/><circle cx="256" cy="256" r="205" fill="#FFFFC0"/><path d="M155.782 122.61h201.535V388.6H155.782z"/><path fill="#FFF" d="M183.216 164.676h63.171V245.7h-63.171z"/><path fill="#FFB000" d="M300.16 388.6h-84.89c-6.61 0-11.98-5.38-11.98-11.98 0-6.61 5.37-11.98 11.98-11.98h84.89c6.6 0 11.97 5.37 11.97 11.98 0 6.6-5.37 11.98-11.97 11.98m-40.29-265.92c-56.28-1.84-104.09 44.4-104.09 100.71 0 36.12 19 67.76 47.53 85.55v22.94c0 9.62 7.81 17.41 17.41 17.41h73.35c9.62 0 17.4-7.81 17.4-17.41v-24.04c27.59-17.99 45.84-49.09 45.84-84.47.02-54.52-43.32-98.94-97.44-100.69m-30.07 67.2c-.32.31-15.97 15.45-16.83 37.97-.26 6.98-6.03 12.47-12.95 12.47h-.5c-.85-.03-1.69-.15-2.52-.34-.83-.2-1.63-.48-2.41-.84-.77-.35-1.5-.78-2.19-1.28s-1.33-1.07-1.91-1.69c-.58-.63-1.09-1.3-1.54-2.03-.44-.73-.81-1.49-1.11-2.29s-.51-1.62-.65-2.46c-.13-.84-.18-1.69-.15-2.54 1.3-33.66 24.14-55.1 25.12-56 .62-.58 1.3-1.09 2.03-1.53.72-.45 1.49-.82 2.29-1.11s1.62-.51 2.46-.64 1.69-.18 2.54-.15c.85.04 1.69.16 2.52.35.83.2 1.63.48 2.41.84q1.155.54 2.19 1.29c.69.5 1.32 1.06 1.9 1.69.58.62 1.09 1.3 1.53 2.02.45.72.82 1.49 1.11 2.28.29.8.51 1.62.64 2.46.13.83.19 1.68.15 2.53a12.9 12.9 0 0 1-1.17 4.91c-.35.77-.78 1.5-1.28 2.19-.49.68-1.05 1.32-1.68 1.9"/><path fill="#FFC000" d="M344.65 194.01c0-7.59-.57-15.03-1.61-22.34-17.07-28.49-47.82-47.85-83.17-48.99-56.28-1.84-104.09 44.4-104.09 100.71 0 36.12 19 67.76 47.53 85.55v22.94c0 7.6 4.89 14.07 11.7 16.43 73.65-12.8 129.64-77 129.64-154.3m-114.85-4.13c-.32.31-15.97 15.45-16.83 37.97-.26 6.98-6.03 12.47-12.95 12.47h-.5c-.85-.03-1.69-.15-2.52-.34-.83-.2-1.63-.48-2.41-.84-.77-.35-1.5-.78-2.19-1.28s-1.33-1.07-1.91-1.69c-.58-.63-1.09-1.3-1.54-2.03-.44-.73-.81-1.49-1.11-2.29s-.51-1.62-.65-2.46c-.13-.84-.18-1.69-.15-2.54 1.3-33.66 24.14-55.1 25.12-56 .62-.58 1.3-1.09 2.03-1.53.72-.45 1.49-.82 2.29-1.11s1.62-.51 2.46-.64 1.69-.18 2.54-.15c.85.04 1.69.16 2.52.35.83.2 1.63.48 2.41.84q1.155.54 2.19 1.29c.69.5 1.32 1.06 1.9 1.69.58.62 1.09 1.3 1.53 2.02.45.72.82 1.49 1.11 2.28.29.8.51 1.62.64 2.46.13.83.19 1.68.15 2.53a12.9 12.9 0 0 1-1.17 4.91c-.35.77-.78 1.5-1.28 2.19-.49.68-1.05 1.32-1.68 1.9"/><path fill="#FFD000" d="M155.78 223.39c0 25.9 9.82 49.49 25.87 67.32 68.9-16.47 120.14-78.42 120.14-152.36 0-1.7-.08-3.4-.12-5.09a99.3 99.3 0 0 0-20.31-7.58c-7.05-1.79-14.2-2.8-21.47-3.02-56.3-1.82-104.11 44.42-104.11 100.73m74.02-33.51c-.32.31-15.97 15.45-16.83 37.97-.26 6.98-6.03 12.47-12.95 12.47h-.5c-.85-.03-1.69-.15-2.52-.34-.83-.2-1.63-.48-2.41-.84-.77-.35-1.5-.78-2.19-1.28s-1.33-1.07-1.91-1.69c-.58-.63-1.09-1.3-1.54-2.03-.44-.73-.81-1.49-1.11-2.29s-.51-1.62-.65-2.46c-.13-.84-.18-1.69-.15-2.54 1.3-33.66 24.14-55.1 25.12-56 .62-.58 1.3-1.09 2.03-1.53.72-.45 1.49-.82 2.29-1.11s1.62-.51 2.46-.64 1.69-.18 2.54-.15c.85.04 1.69.16 2.52.35.83.2 1.63.48 2.41.84q1.155.54 2.19 1.29c.69.5 1.32 1.06 1.9 1.69.58.62 1.09 1.3 1.53 2.02.45.72.82 1.49 1.11 2.28.29.8.51 1.62.64 2.46.13.83.19 1.68.15 2.53-.03.85-.14 1.68-.34 2.51-.2.82-.47 1.62-.83 2.4-.35.77-.78 1.5-1.28 2.19-.49.68-1.05 1.32-1.68 1.9"/><path fill="#FFE000" d="M212.16 174.6c.37-.35.76-.66 1.16-.96.41-.3.84-.57 1.28-.82.43-.24.89-.46 1.35-.66.47-.19.94-.36 1.43-.5q.72-.21 1.47-.33c.5-.08 1-.13 1.5-.16.51-.02 1.01-.02 1.52.02.5.03 1 .1 1.49.19.5.09.99.22 1.47.37s.95.32 1.41.53c.46.2.91.44 1.35.69.43.26.85.54 1.25.85.4.3.78.63 1.14.98.37.35.71.72 1.03 1.11s.61.8.89 1.22c.27.43.52.87.74 1.32 11.2-15.47 19.68-33.06 24.65-52.07-55.16-.32-101.51 45.32-101.51 100.76 0 2.66.14 5.27.34 7.87 11.28-3.84 21.99-8.89 32.12-15.18 4.93-27.41 23.06-44.43 23.92-45.23"/></g></g></svg>