<svg xmlns="http://www.w3.org/2000/svg" width="512" height="512" fill="none" viewBox="0 0 512 512"><defs><clipPath id="a"><path fill="#fff" fill-opacity="0" d="M0 0h512v512H0z"/></clipPath></defs><g clip-path="url(#a)"><path fill="#F70" d="M511.95 256c2.56 158.89-97.06 258.41-255.95 255.95C97.1 514.41-2.42 414.89.04 256-2.42 97.1 97.1-2.42 256 .04 414.89-2.42 514.41 97.1 511.95 256"/><path fill="#FFF" d="M286.71 172.04c0 10.24-11.77 66.76-20.48 108.12 0 .67-.06 1.34-.19 2-.13.65-.33 1.29-.59 1.91-.25.63-.57 1.22-.94 1.78-.38.55-.8 1.07-1.28 1.55-.47.47-.99.9-1.55 1.27s-1.15.69-1.77.95c-.62.25-1.26.45-1.92.58s-1.32.2-1.99.2c-.68 0-1.34-.07-2-.2s-1.3-.33-1.92-.58c-.62-.26-1.21-.58-1.77-.95s-1.08-.8-1.55-1.27c-.48-.48-.9-1-1.28-1.55-.37-.56-.69-1.15-.94-1.78-.26-.62-.45-1.26-.59-1.91-.13-.66-.19-1.33-.19-2-9.01-40.96-20.48-97.67-20.48-108.12 0-2.01.2-4.01.59-5.99s.98-3.9 1.75-5.76c.77-1.87 1.72-3.64 2.84-5.31 1.12-1.68 2.39-3.23 3.82-4.66 1.42-1.42 2.97-2.7 4.65-3.82a30.7 30.7 0 0 1 5.31-2.83c1.86-.78 3.79-1.36 5.76-1.75 1.98-.4 3.98-.59 6-.59 2.01 0 4.01.19 5.99.59 1.98.39 3.9.97 5.76 1.75 1.86.77 3.63 1.71 5.31 2.83s3.23 2.4 4.65 3.82c1.43 1.43 2.7 2.98 3.82 4.66 1.12 1.67 2.07 3.44 2.84 5.31a30.4 30.4 0 0 1 1.75 5.76c.39 1.98.59 3.98.59 5.99m-61.43 167.91c0 2.02.2 4.01.59 5.99s.98 3.9 1.75 5.76c.77 1.87 1.72 3.64 2.84 5.31 1.12 1.68 2.39 3.23 3.82 4.66 1.42 1.42 2.97 2.7 4.65 3.82s3.45 2.06 5.31 2.84c1.86.77 3.79 1.35 5.76 1.74 1.98.4 3.98.59 6 .59 2.01 0 4.01-.19 5.99-.59q2.97-.585 5.76-1.74c1.86-.78 3.63-1.72 5.31-2.84s3.23-2.4 4.65-3.82c1.43-1.43 2.7-2.98 3.82-4.66 1.12-1.67 2.07-3.44 2.84-5.31a30.4 30.4 0 0 0 1.75-5.76c.39-1.98.59-3.97.59-5.99s-.2-4.02-.59-5.99a30.7 30.7 0 0 0-4.59-11.08 31 31 0 0 0-3.82-4.65c-1.42-1.43-2.97-2.7-4.65-3.82a31 31 0 0 0-5.31-2.84c-1.86-.77-3.78-1.35-5.76-1.75-1.98-.39-3.98-.59-5.99-.59-2.02 0-4.02.2-6 .59-1.97.4-3.9.98-5.76 1.75a31 31 0 0 0-5.31 2.84 30 30 0 0 0-4.65 3.82c-1.43 1.43-2.7 2.98-3.82 4.65a30.7 30.7 0 0 0-5.18 17.07"/></g></svg>